<?xml version="1.0" encoding="utf-8"?>
<!-- Generator: Adobe Illustrator 23.0.2, SVG Export Plug-In . SVG Version: 6.00 Build 0)  -->
<svg version="1.1" id="Layer_1" xmlns="http://www.w3.org/2000/svg" xmlns:xlink="http://www.w3.org/1999/xlink" x="0px" y="0px" viewBox="0 0 288 72" style="enable-background:new 0 0 288 72;" xml:space="preserve">
  <style type="text/css">
	.st0{fill:#EC1E27;}
	.st1{fill:#231F20;}
</style>
  <g>
    <path class="st0" d="M16.86,19.07v14.1h17.38v-14.1h6.47v33.49h-6.47V38.42H16.86v14.14h-6.47V19.07H16.86z" />
    <path class="st0" d="M55.15,29.74c3.29,0,5.9,1.06,7.82,3.16c1.92,2.11,2.88,5.03,2.88,8.75v0.89H49.99c0.24,2,0.99,3.54,2.24,4.61
		c1.25,1.08,2.98,1.62,5.17,1.62c1.41,0,2.76-0.24,4.06-0.73c1.3-0.49,2.65-1.23,4.04-2.22v4.39C62.88,52.07,59.7,53,55.96,53
		c-3.53,0-6.42-1.06-8.66-3.19s-3.36-4.95-3.36-8.49c0-3.4,1.04-6.19,3.11-8.34C49.12,30.82,51.82,29.74,55.15,29.74z M60.3,38.97
		c-0.16-1.63-0.66-2.9-1.49-3.82c-0.83-0.92-1.97-1.38-3.43-1.38c-1.49,0-2.68,0.44-3.58,1.32c-0.9,0.88-1.47,2.17-1.71,3.88H60.3z" />
    <path class="st0" d="M77.54,29.74c2.88,0,5.07,0.61,6.59,1.83c1.52,1.22,2.28,2.93,2.28,5.12v10.96c0,0.85,0.34,1.27,1.03,1.27
		c0.29,0,0.69-0.12,1.21-0.37c0.52-0.25,0.96-0.53,1.31-0.85v3.4C87.9,52.36,86.01,53,84.3,53c-1.05,0-1.87-0.18-2.43-0.53
		c-0.57-0.35-0.96-0.98-1.19-1.87c-2.25,1.6-4.51,2.4-6.78,2.4c-1.61,0-3-0.54-4.16-1.63C68.58,50.28,68,48.98,68,47.46
		c0-1.93,0.58-3.46,1.73-4.58c1.15-1.12,3.17-2.09,6.04-2.92l4.77-1.39v-1.03c0-2.19-1.33-3.28-3.98-3.28
		c-1.36,0-2.71,0.31-4.05,0.94c-1.34,0.62-2.57,1.54-3.67,2.76v-5.3C71.28,30.71,74.18,29.74,77.54,29.74z M73.94,46.57
		c0,0.82,0.26,1.47,0.78,1.97c0.52,0.5,1.16,0.74,1.93,0.74c1.29,0,2.59-0.59,3.88-1.77v-5.9c-1.65,0.56-2.94,1.09-3.87,1.58
		c-0.93,0.5-1.62,1-2.06,1.51C74.16,45.21,73.94,45.84,73.94,46.57z" />
    <path class="st0" d="M98.3,19.07v33.49h-5.9V19.07H98.3z" />
    <path class="st0" d="M109.55,24.23h0.48v5.95h7.67v4.46h-7.67v10.33c0,1.01,0.3,1.82,0.91,2.45c0.61,0.62,1.44,0.94,2.49,0.94
		c1.38,0,2.96-0.5,4.75-1.49v4.72c-2.13,0.94-4.12,1.41-5.99,1.41c-2.53,0-4.49-0.69-5.91-2.06c-1.41-1.37-2.12-3.24-2.12-5.59
		V34.63h-3.5v-0.96L109.55,24.23z" />
    <path class="st0" d="M126.45,19.07v14.24h0.14c1.9-2.38,4.2-3.57,6.88-3.57c2.38,0,4.3,0.78,5.75,2.35
		c1.45,1.57,2.18,3.61,2.18,6.14v14.34h-5.87V39.35c0-1.5-0.36-2.7-1.07-3.58c-0.71-0.89-1.68-1.33-2.91-1.33
		c-0.9,0-1.74,0.26-2.53,0.77c-0.79,0.51-1.65,1.36-2.58,2.54v14.82h-5.9V19.07H126.45z" />
    <path class="st1" d="M162.82,20.75v2.85c-2.91-1.71-5.41-2.56-7.5-2.56c-2.01,0-3.7,0.61-5.05,1.83s-2.03,2.74-2.03,4.54
		c0,1.29,0.4,2.46,1.2,3.5c0.8,1.04,2.47,2.04,5.01,3c2.54,0.96,4.4,1.76,5.56,2.4c1.17,0.64,2.16,1.57,2.97,2.78
		c0.81,1.21,1.22,2.79,1.22,4.72c0,2.57-0.94,4.75-2.83,6.52c-1.89,1.77-4.19,2.66-6.9,2.66c-2.78,0-5.64-0.97-8.58-2.92v-3.04
		c3.24,2.38,6.06,3.57,8.44,3.57c1.98,0,3.66-0.64,5.02-1.93c1.37-1.29,2.05-2.87,2.05-4.74c0-1.42-0.42-2.71-1.27-3.85
		c-0.85-1.14-2.56-2.21-5.15-3.21c-2.59-0.99-4.44-1.79-5.55-2.4c-1.11-0.61-2.06-1.47-2.83-2.6c-0.78-1.13-1.16-2.58-1.16-4.35
		c0-2.46,0.94-4.56,2.83-6.29c1.89-1.73,4.16-2.6,6.81-2.6C157.68,18.64,160.26,19.34,162.82,20.75z" />
    <path class="st1" d="M172.6,23.2v7.31h6.18v1.92h-6.18v13.11c0,2.11,0.17,3.5,0.51,4.16s1.27,0.99,2.77,0.99
		c1.15,0,2.49-0.36,4.03-1.08v2.25c-1.55,0.75-3.07,1.13-4.55,1.13c-1.46,0-2.67-0.42-3.64-1.25c-0.97-0.83-1.46-1.98-1.46-3.45
		V32.43h-5.95v-1.92h5.95v-5.25l1.61-2.06H172.6z" />
    <path class="st1" d="M197.39,32.69l-1.37,2.21c-1.84-1.68-3.32-2.52-4.43-2.52c-2.21,0-4.56,2.11-7.07,6.33v13.86h-2.35V30.51h2.35
		v5.8h0.1c2.64-4.16,5.21-6.23,7.72-6.23C193.77,30.08,195.45,30.95,197.39,32.69z" />
    <path class="st1" d="M216.28,40.72H198.9c-0.05,0.38-0.07,0.77-0.07,1.15c0,2.46,0.88,4.55,2.64,6.26
		c1.76,1.71,3.84,2.56,6.23,2.56c2.8,0,5.53-1.09,8.2-3.28v2.66c-2.53,1.95-5.35,2.92-8.49,2.92c-3.18,0-5.81-1.1-7.89-3.31
		c-2.08-2.21-3.12-5.01-3.12-8.41c0-3.23,0.96-5.9,2.88-8.02c1.92-2.12,4.33-3.18,7.24-3.18c2.73,0,5.04,0.96,6.93,2.86
		C215.34,34.85,216.28,37.44,216.28,40.72z M199.21,38.83h14.29c-0.83-4.3-3.16-6.45-6.98-6.45c-1.81,0-3.37,0.56-4.69,1.69
		C200.52,35.19,199.64,36.78,199.21,38.83z" />
    <path class="st1" d="M237.64,48.73v1.97c-2.03,1.53-3.52,2.3-4.46,2.3c-0.54,0-0.92-0.18-1.13-0.54c-0.21-0.36-0.36-1.09-0.46-2.19
		c-2.32,1.82-4.62,2.73-6.9,2.73c-1.66,0-3.07-0.54-4.22-1.63c-1.15-1.09-1.73-2.41-1.73-3.96c0-2.4,1.11-4.29,3.33-5.67
		c2.22-1.38,5.39-2.18,9.52-2.39v-2.81c0-3-1.63-4.51-4.89-4.51c-2.08,0-4.32,0.94-6.74,2.8v-2.42c2.49-1.57,4.87-2.35,7.12-2.35
		c2,0,3.64,0.49,4.94,1.47c1.29,0.98,1.94,2.41,1.94,4.28v13.74c0,0.75,0.18,1.13,0.53,1.13C234.95,50.69,236,50.04,237.64,48.73z
		 M231.6,48.2v-6.88c-3.02-0.11-5.53,0.42-7.52,1.59c-1.99,1.17-2.99,2.67-2.99,4.5c0,1.02,0.42,1.89,1.25,2.59
		c0.83,0.7,1.87,1.06,3.12,1.06C227.48,51.05,229.52,50.1,231.6,48.2z" />
    <path class="st1" d="M242.25,30.51v3.88h0.1c1.79-2.88,4.13-4.32,7.02-4.32c3.37,0,5.75,1.77,7.12,5.3c2.08-3.53,4.63-5.3,7.67-5.3
		c2.29,0,4.13,0.81,5.54,2.45c1.41,1.63,2.11,3.8,2.11,6.5v13.55h-2.35V40.05c0-2.38-0.5-4.26-1.51-5.62
		c-1.01-1.37-2.42-2.05-4.24-2.05c-1.36,0-2.54,0.41-3.55,1.22c-1.01,0.82-2.05,2.13-3.12,3.93v15.03h-2.37V40
		c0-2.45-0.52-4.33-1.57-5.65c-1.05-1.32-2.45-1.98-4.21-1.98c-2.56,0-4.77,1.57-6.64,4.72v15.46h-2.35V30.51H242.25z" />
  </g>
  <g>
    <path class="st1" d="M274.78,47.81h3.99v0.61h-1.66v4.17h-0.69v-4.17h-1.64V47.81z" />
    <path class="st1" d="M283.21,47.82h0.64v4.78h-0.69v-3.71l-1.47,1.85h-0.13l-1.49-1.85v3.71h-0.68v-4.78h0.65l1.59,1.96
		L283.21,47.82z" />
  </g>
</svg>