<svg viewBox="0 0 381 114" xmlns="http://www.w3.org/2000/svg">
  <g fill="none" fill-rule="evenodd">
    <path d="M8.384 48.244c.854 0 1.281.428 1.281 1.281v16.574c4.187-.426 8.373-.426 10.851-.426 15.293 0 19.82 1.88 19.82 19.991v25.887c0 .854-.427 1.281-1.28 1.281h-5.64c-.854 0-1.28-.427-1.28-1.281V86.348c0-13.072-2.565-13.584-10.766-13.584H9.665v38.787c0 .854-.427 1.281-1.28 1.281h-5.64c-.854 0-1.28-.427-1.28-1.281V49.525c0-.853.426-1.281 1.28-1.281h5.64zM87.84 49.014c.854.084 1.195.426 1.195 1.11v3.93c0 .854-.34 1.282-1.11 1.282H68.702c-7.518 0-11.19 2.306-11.19 7.604v1.451c0 4.271 1.194 6.578 6.406 8.715l18.624 7.689c7.861 3.245 9.825 8.115 9.825 14.864v2.735c0 12.986-10.423 14.865-22.554 14.865-6.92 0-13.669-.341-20.846-1.195-.769-.171-1.025-.513-1.025-1.366v-3.846c0-.77.427-1.196 1.196-1.196h23.41c7.517 0 11.105-2.137 11.105-7.519v-1.623c0-4.355-1.196-7.09-6.493-9.227l-20.248-8.202c-6.664-2.561-8.03-8.03-8.03-14.522V62.51c0-12.986 10.166-14.779 22.384-14.779 7.091 0 9.653.428 16.574 1.282M110.225 53.2c.94-.257 1.452.171 1.452 1.11v11.875h8.971c.94 0 1.367.428 1.367 1.282v4.015c0 .855-.428 1.281-1.367 1.281h-8.97v28.707c0 3.758 1.025 4.613 5.552 4.613h4.101c.94 0 1.367.342 1.367 1.196v4.102c0 .767-.427 1.195-1.282 1.366-1.708.427-4.015.513-4.784.513-6.15 0-13.156-.086-13.156-9.74V72.762h-4.785c-.854 0-1.28-.426-1.28-1.28v-4.016c0-.854.426-1.282 1.28-1.282h4.785V55.933c0-.854.341-1.196 1.11-1.367l5.64-1.367zM153.285 66.613c.854.256 1.28.598 1.28 1.451v3.59c0 .854-.51 1.281-1.365 1.195h-7.433c-5.895 0-7.433.94-7.433 4.785v33.917c0 .854-.427 1.281-1.281 1.281H131.5c-.855 0-1.282-.427-1.282-1.28V75.668c0-9.655 8.544-9.996 13.499-9.996 2.05 0 7.86.341 9.568.94M166.7 86.433h22.127c-.171-10.85-1.965-13.584-10.85-13.584-9.227 0-11.106 2.734-11.277 13.584m30.329 1.794v2.477c0 1.71-.428 2.393-3.076 2.393h-27.168c.257 10.422 2.222 12.985 11.363 12.985h14.01c.855 0 1.282.427 1.282 1.283v3.758c0 .77-.427 1.282-1.195 1.367-4.358.598-9.057.77-14.268.77-16.061 0-19.48-4.7-19.48-23.75 0-19.054 3.419-23.838 19.48-23.838 15.292 0 18.88 4.53 19.052 22.555M218.816 92.926c-4.699 0-7.177 1.539-7.177 6.408 0 5.639 2.82 6.92 9.825 6.92 2.649 0 7.689-.171 10.936-1.025V92.926h-13.584zm21.785-13.84v29.902c0 .769 0 1.794-1.623 2.393-2.99 1.109-10.423 1.879-18.967 1.879-11.277 0-16.488-2.307-16.488-13.755 0-10.252 5.382-13.157 15.122-13.157l13.755-.085v-5.724c0-5.297-3.076-7.69-11.106-7.69h-12.816c-1.025 0-1.281-.255-1.281-1.28v-3.504c0-1.025.342-1.196 1.196-1.367 5.04-.854 9.312-1.025 12.901-1.025 13.327 0 19.307 4.1 19.307 13.413zM314.931 85.322l-.17 26.23c0 .853-.428 1.28-1.282 1.28h-5.468c-.854 0-1.282-.427-1.282-1.28V86.346c0-13.07-2.563-13.584-10.594-13.584-3.503 0-7.176.257-9.995.77 1.025 2.904 1.366 6.664 1.366 12.131l-.17 25.887c0 1.025-.342 1.281-1.11 1.281h-5.64c-.854 0-1.28-.427-1.28-1.28V85.835c0-12.56-2.564-12.987-10.595-12.987h-8.544v38.702c0 .854-.426 1.281-1.28 1.281h-5.64c-.854 0-1.28-.427-1.28-1.28V68.405c0-1.024.426-1.195 1.28-1.366 4.443-.855 10.338-1.367 14.268-1.367 5.383 0 11.021 1.11 14.182 2.563 4.357-1.538 9.825-2.648 13.755-2.648 14.78 0 19.48 2.05 19.48 19.734M7.557 20.652l-1.779 6.184H11l-1.733-6.184c-.23-.792-.254-.902-.9-.902-.532 0-.579.11-.809.902m4.436-.727l3.996 14.017c.047.265-.023.353-.278.353h-2.356c-.207 0-.254-.088-.323-.353l-1.363-4.73H5.085L3.7 33.942c-.07.265-.116.353-.3.353h-2.38c-.254 0-.323-.088-.277-.353l4.112-14.017c.693-2.309 1.108-2.574 3.512-2.574 2.587 0 2.957.265 3.627 2.574M28.601 22.127c.255 0 .324.066.277.352l-2.61 9.33c-.624 2.31-.809 2.595-3.396 2.595-2.402 0-2.61-.263-3.28-2.595l-2.703-9.33c-.047-.286.046-.352.3-.352h2.287c.186 0 .208.066.301.352l2.402 8.757c.232.77.301.88.693.88.486 0 .578-.11.786-.88l2.333-8.757c.07-.286.116-.352.3-.352h2.31zM34.86 29.145c-1.224 0-1.778.374-1.778 1.475 0 1.254.624 1.561 2.334 1.561.577 0 1.847-.043 2.633-.242v-2.794H34.86zm5.984-3.52v7.657c0 .286-.046.507-.462.637-1.201.33-3.234.485-5.198.485-3.234 0-4.874-.485-4.874-3.674 0-2.795 1.548-3.499 4.389-3.499h3.35v-1.144c0-1.232-.762-1.76-2.611-1.76H31.65c-.277 0-.347-.066-.347-.33v-1.343c0-.264.093-.308.324-.352 1.385-.242 2.633-.286 3.81-.286 4.068 0 5.407 1.233 5.407 3.608zM46.595 22.127c.231 0 .347.109.347.33v11.508c0 .22-.116.33-.347.33h-2.102c-.23 0-.346-.11-.346-.33V22.457c0-.221.115-.33.346-.33h2.102zm.624-3.477c0 .968-.577 1.518-1.663 1.518s-1.687-.55-1.687-1.518.601-1.518 1.687-1.518 1.663.55 1.663 1.518zM52.81 17.462c.23 0 .346.11.346.33v16.173c0 .22-.116.33-.347.33h-2.103c-.23 0-.345-.11-.345-.33V17.792c0-.22.115-.33.345-.33h2.103zM60.386 29.145c-1.225 0-1.779.374-1.779 1.475 0 1.254.624 1.561 2.334 1.561.577 0 1.847-.043 2.633-.242v-2.794h-3.188zm5.983-3.52v7.657c0 .286-.046.507-.462.637-1.2.33-3.234.485-5.198.485-3.234 0-4.874-.485-4.874-3.674 0-2.795 1.548-3.499 4.39-3.499h3.35v-1.144c0-1.232-.763-1.76-2.612-1.76h-3.788c-.277 0-.347-.066-.347-.33v-1.343c0-.264.093-.308.324-.352 1.385-.242 2.633-.286 3.811-.286 4.067 0 5.406 1.233 5.406 3.608zM72.467 24.327v7.591c.81.11 1.85.176 2.588.176 2.587 0 2.841-.88 2.841-3.872 0-3.169-.324-3.895-2.91-3.895h-2.519zm-.347-6.843c.232 0 .347.088.347.33v4.334c.763-.088 1.756-.132 2.957-.132 4.273 0 5.268 1.321 5.268 6.206 0 4.907-.995 6.182-5.66 6.182-1.664 0-2.98-.088-4.945-.396-.276-.043-.438-.154-.438-.461V17.814c0-.242.115-.33.346-.33h2.125zM86.142 17.462c.231 0 .347.11.347.33v16.173c0 .22-.116.33-.347.33H84.04c-.23 0-.346-.11-.346-.33V17.792c0-.22.115-.33.346-.33h2.102zM92.31 27.32h5.29c-.022-2.377-.53-2.993-2.587-2.993-2.148 0-2.68.616-2.703 2.992m8.108.66v.66c0 .418-.138.595-.785.595H92.31c.07 2.332.624 2.86 2.864 2.86h3.95c.232 0 .347.11.347.33v1.365c0 .241-.115.33-.323.373-1.225.176-2.656.242-4.135.242-4.505 0-5.52-1.232-5.52-6.183 0-4.972 1.015-6.205 5.52-6.205 4.343 0 5.36 1.19 5.405 5.963M120.4 17.462c.231 0 .369.11.369.33v1.804c0 .22-.138.33-.369.33h-8.548v4.93h7.809c.231 0 .346.109.346.33v1.738c0 .22-.115.33-.346.33h-7.809v4.576h8.548c.231 0 .369.11.369.33v1.805c0 .22-.138.33-.369.33h-11.182c-.23 0-.345-.11-.345-.33V17.792c0-.22.115-.33.345-.33H120.4zM134.122 22.127c.277 0 .347.176.185.396l-3.974 5.369 4.435 6.006c.139.22.07.397-.208.397h-2.564c-.14 0-.254-.066-.347-.2l-3.003-4.135-3.003 4.136c-.092.133-.208.199-.346.199h-2.565c-.277 0-.346-.176-.184-.397l4.412-6.006-3.974-5.37c-.161-.22-.092-.395.186-.395h2.563c.162 0 .3.066.394.197l2.517 3.477 2.519-3.477c.115-.131.23-.197.393-.197h2.564zM145.81 22.259c.23.044.346.153.346.396v1.342c0 .22-.117.33-.37.33h-3.627c-2.472 0-2.795.77-2.795 3.872 0 3.104.323 3.895 2.795 3.895h3.627c.253 0 .37.11.37.33v1.342c0 .242-.117.353-.347.396-1.225.199-2.727.243-3.65.243-4.69 0-5.615-1.233-5.615-6.206 0-4.95.925-6.182 5.615-6.182.923 0 2.425.044 3.65.242M151.306 17.462c.231 0 .347.11.347.33v16.173c0 .22-.116.33-.347.33h-2.102c-.23 0-.346-.11-.346-.33V17.792c0-.22.115-.33.346-.33h2.102zM165.606 22.127c.23 0 .347.109.347.33v11.22c0 .288-.117.309-.347.353-1.71.33-3.766.374-5.151.374-4.275 0-5.476-.638-5.476-5.236v-6.711c0-.221.162-.33.393-.33h2.079c.231 0 .323.109.323.33v6.227c0 3.256.532 3.41 2.703 3.41h2.657v-9.637c0-.221.116-.33.347-.33h2.125zM177.548 22.259c.23.044.346.153.346.353v1.296c0 .22-.116.33-.369.33h-4.25c-.97 0-1.526.288-1.526.969v.264c0 .528.3.947 1.271 1.299l3.026 1.056c2.033.726 2.356 1.848 2.356 3.212v.286c0 2.508-1.755 3.08-4.782 3.08-2.009 0-3.742-.131-4.505-.197-.277-.022-.346-.133-.346-.33v-1.365c0-.242.092-.352.37-.352h4.481c1.548 0 2.033-.175 2.033-.946v-.22c0-.528-.277-.881-1.317-1.254l-3.049-1.1c-1.802-.616-2.31-1.937-2.31-3.235v-.44c0-2.398 2.08-2.948 4.967-2.948.993 0 2.264.044 3.604.242M183.623 22.127c.23 0 .347.109.347.33v11.508c0 .22-.116.33-.347.33h-2.102c-.231 0-.346-.11-.346-.33V22.457c0-.221.115-.33.346-.33h2.102zm.624-3.477c0 .968-.577 1.518-1.663 1.518s-1.687-.55-1.687-1.518.6-1.518 1.687-1.518c1.086 0 1.663.55 1.663 1.518zM198.084 22.127c.254 0 .323.066.276.352l-2.61 9.33c-.623 2.31-.81 2.595-3.395 2.595-2.404 0-2.611-.263-3.281-2.595l-2.703-9.33c-.047-.286.046-.352.3-.352h2.287c.186 0 .208.066.3.352l2.403 8.757c.232.77.3.88.694.88.485 0 .577-.11.785-.88l2.333-8.757c.069-.286.116-.352.3-.352h2.31zM203.234 27.32h5.29c-.022-2.377-.531-2.993-2.587-2.993-2.148 0-2.68.616-2.703 2.992m8.108.66v.66c0 .418-.138.595-.785.595h-7.323c.069 2.332.624 2.86 2.864 2.86h3.95c.232 0 .347.11.347.33v1.365c0 .241-.115.33-.323.373-1.225.176-2.656.242-4.135.242-4.505 0-5.521-1.232-5.521-6.183 0-4.972 1.016-6.205 5.521-6.205 4.343 0 5.36 1.19 5.405 5.963M216.585 17.462c.231 0 .347.11.347.33v16.173c0 .22-.115.33-.346.33h-2.103c-.23 0-.346-.11-.346-.33V17.792c0-.22.115-.33.346-.33h2.102zM231 22.127c.232 0 .348.109.348.33V33.59c-.024 3.829-.81 5.215-5.498 5.215-1.548 0-2.634-.066-3.905-.242-.208-.043-.3-.154-.3-.352v-1.3c0-.24.092-.33.324-.33h3.719c2.31 0 2.865-.526 2.865-2.265v-.11c-.994.154-1.872.198-2.957.198-4.275 0-5.361-1.386-5.361-5.83v-6.117c0-.221.117-.33.347-.33h2.103c.23 0 .346.109.346.33v5.742c0 3.147.416 3.873 3.003 3.873.763 0 1.71-.021 2.519-.132v-9.483c0-.221.115-.33.345-.33H231zM257.243 22.127c.254 0 .323.066.277.33l-2.01 9.594c-.44 2.09-.947 2.353-2.933 2.353-2.311 0-2.52-.263-3.026-2.353l-1.318-5.545-1.316 5.545c-.486 2.09-.694 2.353-3.027 2.353-1.987 0-2.471-.263-2.934-2.353l-2.01-9.594c-.022-.264.047-.33.277-.33h2.288c.184 0 .23.066.277.33l1.756 8.999c.138.595.254.638.508.638.3 0 .346-.043.508-.638l2.195-8.647c.046-.243.162-.33.323-.33h2.31c.185 0 .278.087.347.33l2.195 8.647c.138.595.184.638.485.638.277 0 .392-.043.508-.638l1.756-9c.046-.263.116-.33.277-.33h2.287zM262.53 22.127c.232 0 .348.109.348.33v11.508c0 .22-.116.33-.347.33h-2.102c-.231 0-.346-.11-.346-.33V22.457c0-.221.115-.33.346-.33h2.102zm.625-3.477c0 .968-.577 1.518-1.663 1.518s-1.687-.55-1.687-1.518.6-1.518 1.687-1.518c1.086 0 1.663.55 1.663 1.518zM269.438 18.76c.254-.065.393.066.393.309v3.08h2.287c.231 0 .37.11.37.33v1.386c0 .243-.139.352-.37.352h-2.287v6.71c0 .97.3 1.167 1.432 1.167h1.017c.276 0 .392.088.392.309v1.452c0 .24-.116.352-.346.395-.647.11-1.294.155-1.64.155-1.803 0-3.674-.044-3.674-2.684v-7.504h-1.316c-.232 0-.37-.11-.37-.352v-1.386c0-.22.138-.33.37-.33h1.316v-2.531c0-.22.115-.307.323-.352l2.103-.506zM277.522 17.484c.231 0 .347.11.347.33v4.313c.993-.11 2.055-.11 2.703-.11 4.273 0 5.452.615 5.452 5.214v6.733c0 .22-.116.331-.347.331h-2.102c-.231 0-.347-.11-.347-.33v-6.25c0-3.256-.531-3.41-2.702-3.41h-2.657v9.66c0 .22-.116.33-.347.33h-2.125c-.231 0-.323-.11-.323-.33v-16.15c0-.222.115-.33.345-.33h2.103z" fill="currentColor"/>
    <path d="M310.49 20.441a4.64 4.64 0 00-4.536 3.632c-.977 4.442-1.51 9.243-1.51 14.254 0 5.011.535 9.812 1.513 14.254a4.64 4.64 0 004.537 3.631h14.205v-35.77H310.49z" fill="currentColor"/>
    <path d="M379.212 24.073a4.641 4.641 0 00-4.537-3.632H360.47V6.234a4.641 4.641 0 00-3.635-4.538c-4.44-.976-9.24-1.509-14.252-1.509-2.207 0-4.363.12-6.476.32v19.936h15.091c5.118-.002 9.272 4.147 9.272 9.265v26.504h-11.408V32.994a2.273 2.273 0 00-2.272-2.273l-10.683.001v25.49h-11.41V70.42a4.642 4.642 0 003.632 4.538c4.442.975 9.243 1.51 14.255 1.51 5.01 0 9.812-.536 14.252-1.513a4.64 4.64 0 003.634-4.538V56.212h14.207a4.64 4.64 0 004.538-3.632c.976-4.44 1.508-9.242 1.508-14.253 0-5.012-.534-9.812-1.512-14.254" fill="currentColor"/>
    <path fill="currentColor" d="M330.902 103.144h-3.575v-1.412h8.655v1.412h-3.575l-.001 9.691h-1.505zM338.111 101.734h2.243l3.527 8.406h.063l3.497-8.406h2.242l-.001 11.104h-1.505l.001-9.127h-.031l-3.749 9.127h-1.004l-3.746-9.127h-.031l-.001 9.127h-1.506z"/>
  </g>
</svg>